<?xml version="1.0" encoding="UTF-8"?>
<svg width="80px" height="80px" viewBox="0 0 80 80" version="1.1" xmlns="http://www.w3.org/2000/svg" xmlns:xlink="http://www.w3.org/1999/xlink">
    <title>logo</title>
    <defs>
        <linearGradient x1="50%" y1="0%" x2="50%" y2="100%" id="linearGradient-1">
            <stop stop-color="#5A8DEE" offset="0%"></stop>
            <stop stop-color="#699AF9" offset="100%"></stop>
        </linearGradient>
        <linearGradient x1="0%" y1="0%" x2="100%" y2="100%" id="linearGradient-2">
            <stop stop-color="#FDAC41" offset="0%"></stop>
            <stop stop-color="#E38100" offset="100%"></stop>
        </linearGradient>
    </defs>
    <g id="logo" stroke="none" stroke-width="1" fill="none" fill-rule="evenodd">
        <g id="icon" transform="translate(15.000000, 15.000000)">
            <path d="M26.7045455,9.09090909 C36.4322882,9.09090909 44.3181818,16.9768027 44.3181818,26.7045455 C44.3181818,36.4322882 36.4322882,44.3181818 26.7045455,44.3181818 C16.9768027,44.3181818 9.09090909,36.4322882 9.09090909,26.7045455 C9.09090909,26.0428995 9.12739105,25.3897743 9.19845315,24.7470718 L16.4387658,24.7474201 C16.3186355,25.3813912 16.2557781,26.0356277 16.2557781,26.7045455 C16.2557781,32.4752403 20.9338506,37.1533128 26.7045455,37.1533128 C32.4752403,37.1533128 37.1533128,32.4752403 37.1533128,26.7045455 C37.1533128,20.9338506 32.4752403,16.2557781 26.7045455,16.2557781 C26.0356277,16.2557781 25.3813912,16.3186355 24.7474201,16.4387658 L24.7470718,9.19845315 C25.3897743,9.12739105 26.0428995,9.09090909 26.7045455,9.09090909 Z" id="Combined-Shape" fill="#4880EA"></path>
            <path d="M26.1363636,3.40909091 C39.3158861,3.40909091 50,13.8388212 50,26.7045455 C50,39.5702697 39.3158861,50 26.1363636,50 C12.9568412,50 2.27272727,39.5702697 2.27272727,26.7045455 C2.27272727,26.0397595 2.3012528,25.3814774 2.35717417,24.7308019 L12.1233067,24.7305185 C12.0288449,25.3752429 11.9799692,26.0343223 11.9799692,26.7045455 C11.9799692,34.3367548 18.3180029,40.5238829 26.1363636,40.5238829 C33.9547244,40.5238829 40.2927581,34.3367548 40.2927581,26.7045455 C40.2927581,19.0723361 33.9547244,12.885208 26.1363636,12.885208 C25.4497889,12.885208 24.7746299,12.9329206 24.1141762,13.0251346 L24.1139827,3.4915679 C24.7806902,3.43695111 25.455194,3.40909091 26.1363636,3.40909091 Z" id="Combined-Shape" fill="url(#linearGradient-1)"></path>
            <rect id="Rectangle" fill="url(#linearGradient-2)" x="0" y="0" width="14.7727273" height="14.7727273"></rect>
        </g>
    </g>
</svg>