<svg width="80" height="80" viewBox="0 0 80 80" fill="none" xmlns="http://www.w3.org/2000/svg">
<path d="M47.3088 34.6559C45.7394 31.9274 46.6749 28.436 49.3983 26.8578C52.1217 25.2795 55.6016 26.2119 57.171 28.9404L67.7563 47.3441C69.3257 50.0726 68.3902 53.564 65.6668 55.1423C62.9434 56.7205 59.4635 55.7881 57.8941 53.0596L47.3088 34.6559Z" fill="#666CFF"/>
<path d="M47.4251 34.6559C45.8557 31.9274 46.7912 28.436 49.5146 26.8578C52.238 25.2795 55.7179 26.2119 57.2873 28.9404L67.8726 47.3441C69.442 50.0726 68.5065 53.564 65.7831 55.1423C63.0597 56.7205 59.5798 55.7881 58.0104 53.0596L47.4251 34.6559Z" fill="url(#paint0_linear_1_12)" fill-opacity="0.4"/>
<path d="M56.2674 34.6559C57.8368 31.9274 56.9013 28.436 54.1779 26.8578C51.4545 25.2795 47.9746 26.2119 46.4052 28.9404L35.8199 47.3441C34.2505 50.0726 35.186 53.564 37.9094 55.1423C40.6328 56.7205 44.1127 55.7881 45.6821 53.0596L56.2674 34.6559Z" fill="#666CFF"/>
<path d="M24.3307 34.6559C22.7613 31.9274 23.6968 28.436 26.4202 26.8578C29.1436 25.2795 32.6235 26.2119 34.1929 28.9404L44.7782 47.3441C46.3476 50.0726 45.4121 53.564 42.6887 55.1423C39.9653 56.7205 36.4854 55.7881 34.916 53.0596L24.3307 34.6559Z" fill="#666CFF"/>
<path d="M24.3307 34.6559C22.7613 31.9274 23.6968 28.436 26.4202 26.8578C29.1436 25.2795 32.6235 26.2119 34.1929 28.9404L44.7782 47.3441C46.3476 50.0726 45.4121 53.564 42.6887 55.1423C39.9653 56.7205 36.4854 55.7881 34.916 53.0596L24.3307 34.6559Z" fill="url(#paint1_linear_1_12)" fill-opacity="0.4"/>
<path d="M33.289 34.6559C34.8584 31.9274 33.9229 28.436 31.1995 26.8578C28.4761 25.2795 24.9962 26.2119 23.4268 28.9404L12.8415 47.3441C11.2721 50.0726 12.2076 53.564 14.931 55.1423C17.6544 56.7205 21.1343 55.7881 22.7037 53.0596L33.289 34.6559Z" fill="#666CFF"/>
<defs>
<linearGradient id="paint0_linear_1_12" x1="49.5146" y1="26.8578" x2="65.8754" y2="55.0888" gradientUnits="userSpaceOnUse">
<stop/>
<stop offset="1" stop-opacity="0"/>
</linearGradient>
<linearGradient id="paint1_linear_1_12" x1="26.4202" y1="26.8578" x2="42.781" y2="55.0888" gradientUnits="userSpaceOnUse">
<stop/>
<stop offset="1" stop-opacity="0"/>
</linearGradient>
</defs>
</svg>
